<?xml version="1.0" standalone="no"?>
<svg xmlns:xlink="http://www.w3.org/1999/xlink" id="wave" style="transform:rotate(0deg); transition: 0.3s" viewBox="0 0 1440 380" version="1.1" xmlns="http://www.w3.org/2000/svg"><defs><linearGradient id="sw-gradient-0" x1="0" x2="0" y1="1" y2="0"><stop stop-color="rgba(33, 17, 137, 1)" offset="0%"/><stop stop-color="rgba(46.647, 19.637, 222.214, 1)" offset="100%"/></linearGradient></defs><path style="transform:translate(0, 0px); opacity:1" fill="url(#sw-gradient-0)" d="M0,190L60,164.7C120,139,240,89,360,69.7C480,51,600,63,720,95C840,127,960,177,1080,183.7C1200,190,1320,152,1440,120.3C1560,89,1680,63,1800,95C1920,127,2040,215,2160,247C2280,279,2400,253,2520,228C2640,203,2760,177,2880,145.7C3000,114,3120,76,3240,107.7C3360,139,3480,241,3600,240.7C3720,241,3840,139,3960,101.3C4080,63,4200,89,4320,120.3C4440,152,4560,190,4680,209C4800,228,4920,228,5040,190C5160,152,5280,76,5400,88.7C5520,101,5640,203,5760,247C5880,291,6000,279,6120,278.7C6240,279,6360,291,6480,253.3C6600,215,6720,127,6840,82.3C6960,38,7080,38,7200,63.3C7320,89,7440,139,7560,177.3C7680,215,7800,241,7920,215.3C8040,190,8160,114,8280,82.3C8400,51,8520,63,8580,69.7L8640,76L8640,380L8580,380C8520,380,8400,380,8280,380C8160,380,8040,380,7920,380C7800,380,7680,380,7560,380C7440,380,7320,380,7200,380C7080,380,6960,380,6840,380C6720,380,6600,380,6480,380C6360,380,6240,380,6120,380C6000,380,5880,380,5760,380C5640,380,5520,380,5400,380C5280,380,5160,380,5040,380C4920,380,4800,380,4680,380C4560,380,4440,380,4320,380C4200,380,4080,380,3960,380C3840,380,3720,380,3600,380C3480,380,3360,380,3240,380C3120,380,3000,380,2880,380C2760,380,2640,380,2520,380C2400,380,2280,380,2160,380C2040,380,1920,380,1800,380C1680,380,1560,380,1440,380C1320,380,1200,380,1080,380C960,380,840,380,720,380C600,380,480,380,360,380C240,380,120,380,60,380L0,380Z"/></svg>